<svg xmlns="http://www.w3.org/2000/svg" viewBox="0 0 155.32 155">
  <defs>
    <style>
      .cls-1, .cls-11 {
        fill: #fff;
      }

      .cls-10, .cls-2, .cls-3, .cls-4, .cls-5, .cls-6, .cls-7, .cls-8, .cls-9 {
        fill: none;
      }

      .cls-2, .cls-9 {
        stroke: #0500c9;
      }

      .cls-10, .cls-11, .cls-2, .cls-3, .cls-4, .cls-5, .cls-6, .cls-7, .cls-8, .cls-9 {
        stroke-miterlimit: 10;
      }

      .cls-2 {
        stroke-width: 0.15px;
      }

      .cls-10, .cls-11, .cls-3 {
        stroke: #000;
      }

      .cls-3 {
        stroke-width: 3px;
      }

      .cls-4 {
        stroke: #0df400;
      }

      .cls-5 {
        stroke: #009f08;
      }

      .cls-5, .cls-8 {
        stroke-width: 2px;
      }

      .cls-6 {
        stroke: #d84aff;
      }

      .cls-7 {
        stroke: #0059d4;
      }

      .cls-8 {
        stroke: #00b6df;
      }

      .cls-10, .cls-11 {
        stroke-width: 0.75px;
      }

      .cls-12 {
        font-size: 11px;
        font-family: TrebuchetMS-Bold, Trebuchet MS;
        font-weight: 700;
      }
    </style>
  </defs>
  <g id="regular-picture">
    <rect class="cls-1" x="1.5" y="1.5" width="152" height="152"/>
    <g>
      <rect class="cls-2" x="1.5" y="1.5" width="152" height="152"/>
      <line class="cls-2" x1="1.5" y1="146.89" x2="153.5" y2="146.89"/>
      <line class="cls-2" x1="1.5" y1="140.28" x2="153.5" y2="140.28"/>
      <line class="cls-2" x1="1.5" y1="133.67" x2="153.5" y2="133.67"/>
      <line class="cls-2" x1="1.5" y1="127.07" x2="153.5" y2="127.07"/>
      <line class="cls-2" x1="1.5" y1="120.46" x2="153.5" y2="120.46"/>
      <line class="cls-2" x1="1.5" y1="113.85" x2="153.5" y2="113.85"/>
      <line class="cls-2" x1="1.5" y1="107.24" x2="153.5" y2="107.24"/>
      <line class="cls-2" x1="1.5" y1="100.63" x2="153.5" y2="100.63"/>
      <line class="cls-2" x1="1.5" y1="94.02" x2="153.5" y2="94.02"/>
      <line class="cls-2" x1="1.5" y1="87.41" x2="153.5" y2="87.41"/>
      <line class="cls-2" x1="1.5" y1="80.8" x2="153.5" y2="80.8"/>
      <line class="cls-2" x1="1.5" y1="74.2" x2="153.5" y2="74.2"/>
      <line class="cls-2" x1="1.5" y1="67.59" x2="153.5" y2="67.59"/>
      <line class="cls-2" x1="1.5" y1="60.98" x2="153.5" y2="60.98"/>
      <line class="cls-2" x1="1.5" y1="54.37" x2="153.5" y2="54.37"/>
      <line class="cls-2" x1="1.5" y1="47.76" x2="153.5" y2="47.76"/>
      <line class="cls-2" x1="1.5" y1="41.15" x2="153.5" y2="41.15"/>
      <line class="cls-2" x1="1.5" y1="34.54" x2="153.5" y2="34.54"/>
      <line class="cls-2" x1="1.5" y1="27.93" x2="153.5" y2="27.93"/>
      <line class="cls-2" x1="1.5" y1="21.33" x2="153.5" y2="21.33"/>
      <line class="cls-2" x1="1.5" y1="14.72" x2="153.5" y2="14.72"/>
      <line class="cls-2" x1="1.5" y1="8.11" x2="153.5" y2="8.11"/>
      <line class="cls-2" x1="146.26" y1="1.5" x2="146.26" y2="153.5"/>
      <line class="cls-2" x1="139.02" y1="1.5" x2="139.02" y2="153.5"/>
      <line class="cls-2" x1="131.79" y1="1.5" x2="131.79" y2="153.5"/>
      <line class="cls-2" x1="124.55" y1="1.5" x2="124.55" y2="153.5"/>
      <line class="cls-2" x1="117.31" y1="1.5" x2="117.31" y2="153.5"/>
      <line class="cls-2" x1="110.07" y1="1.5" x2="110.07" y2="153.5"/>
      <line class="cls-2" x1="102.83" y1="1.5" x2="102.83" y2="153.5"/>
      <line class="cls-2" x1="95.6" y1="1.5" x2="95.6" y2="153.5"/>
      <line class="cls-2" x1="88.36" y1="1.5" x2="88.36" y2="153.5"/>
      <line class="cls-2" x1="81.12" y1="1.5" x2="81.12" y2="153.5"/>
      <line class="cls-2" x1="73.88" y1="1.5" x2="73.88" y2="153.5"/>
      <line class="cls-2" x1="66.64" y1="1.5" x2="66.64" y2="153.5"/>
      <line class="cls-2" x1="59.4" y1="1.5" x2="59.4" y2="153.5"/>
      <line class="cls-2" x1="52.17" y1="1.5" x2="52.17" y2="153.5"/>
      <line class="cls-2" x1="44.93" y1="1.5" x2="44.93" y2="153.5"/>
      <line class="cls-2" x1="37.69" y1="1.5" x2="37.69" y2="153.5"/>
      <line class="cls-2" x1="30.45" y1="1.5" x2="30.45" y2="153.5"/>
      <line class="cls-2" x1="23.21" y1="1.5" x2="23.21" y2="153.5"/>
      <line class="cls-2" x1="15.98" y1="1.5" x2="15.98" y2="153.5"/>
      <line class="cls-2" x1="8.74" y1="1.5" x2="8.74" y2="153.5"/>
    </g>
    <line class="cls-3" x1="122.61" y1="41.15" x2="44.76" y2="41.15"/>
    <line class="cls-3" x1="66.67" y1="41.15" x2="66.62" y2="1.5"/>
    <line class="cls-3" x1="147.33" y1="41.15" x2="153.5" y2="41.15"/>
    <polyline class="cls-3" points="45.99 153.5 1.5 153.5 1.5 1.5 8.74 1.5"/>
    <polyline class="cls-3" points="109.1 153.5 153.5 153.5 153.82 1.5 33.26 1.5"/>
    <path class="cls-4" d="M176.11,197.33a23,23,0,0,0,23,22.71" transform="translate(-166.9 -194.52)"/>
    <line class="cls-5" x1="32.22" y1="26.08" x2="32.22" y2="3.08"/>
    <path class="cls-4" d="M290.15,234.45a23,23,0,0,1,23-22.71" transform="translate(-166.9 -194.52)"/>
    <line class="cls-5" x1="146.26" y1="16.67" x2="146.26" y2="39.67"/>
    <ellipse class="cls-6" cx="78.19" cy="11.46" rx="1.5" ry="1.41"/>
    <rect class="cls-6" x="228.74" y="204.85" width="35.7" height="22" transform="translate(295.53 -225.26) rotate(90)"/>
    <polygon class="cls-6" points="90.69 6.29 84.8 6.29 72.55 6.29 70.69 7.98 70.69 35.19 72.55 37.3 90.69 37.3 90.69 6.29"/>
    <polyline class="cls-6" points="84.31 36.9 86.69 34.67 86.69 7.81 84.76 6.14"/>
    <g id="toilet">
      <polygon class="cls-6" points="105.7 10.26 104.88 10.26 103.31 8.73 103.31 4.67 104.14 3.26 115.49 3.26 116.31 4.67 116.31 8.73 114.62 10.26 113.88 10.26 109.81 10.26 105.7 10.26"/>
      <polygon class="cls-6" points="106.94 21.62 105.48 20.09 104.8 18.59 104.83 14.81 105.63 10.26 114.01 10.26 114.8 14.76 114.83 18.54 114.14 20.04 112.69 21.57 111.09 22.43 108.53 22.48 106.94 21.62"/>
    </g>
    <rect id="counter" class="cls-7" x="299.34" y="190.1" width="11.24" height="27.03" transform="translate(-65.55 314.06) rotate(-90)"/>
    <line class="cls-8" x1="45.99" y1="153.5" x2="109.1" y2="153.5"/>
  </g>
  <g id="labels">
    <g id="_1_sq._ft." data-name="1 sq. ft.">
      <rect class="cls-9" x="37.69" y="93.83" width="7.29" height="7.29"/>
      <line class="cls-10" x1="44.98" y1="101.12" x2="61.11" y2="112.61"/>
      <rect class="cls-11" x="60.52" y="106.86" width="45.63" height="13.81"/>
      <text class="cls-12" transform="translate(63.2 116.94)">1 sq. ft.</text>
    </g>
  </g>
</svg>