<svg id="svg-rooms" xmlns="http://www.w3.org/2000/svg" viewBox="0 0 122.3 68.89"><defs><style>.cls-1{fill:none;}</style></defs><polygon id="svg-room-5" class="cls-1" points="25.33 2.52 26.3 23.12 48.4 30.93 47.66 7.33 25.33 2.52"/><polygon id="svg-room-6" class="cls-1" points="121.22 31.82 122.3 7.26 76.15 13.48 47.66 7.33 48.4 30.93 77.81 41.33 121.22 31.82"/><polygon id="svg-room-1" class="cls-1" points="26.3 23.12 27.11 40.37 27.78 40.89 27.85 43.63 49.2 54.48 48.47 30.96 26.3 23.12"/><polygon id="svg-room-2" class="cls-1" points="120.15 56.15 121.22 31.82 77.81 41.33 48.47 30.96 49.2 54.48 77.56 68.89 120.15 56.15"/><polygon id="svg-room-7" class="cls-1" points="34.37 10.96 0 6.37 2.05 29.49 35.93 37.63 97.71 20.23 97.85 0 34.37 10.96"/><polygon id="svg-room-3" class="cls-1" points="97.71 20.23 72.48 27.34 72.48 46.48 97.59 37.28 97.71 20.23"/><polygon id="svg-room-4" class="cls-1" points="35.93 37.63 2.05 29.49 4 51.56 38.04 62.78 37.98 59.11 72.48 46.48 72.48 27.34 35.93 37.63"/></svg>