<svg xmlns="http://www.w3.org/2000/svg" viewBox="0 0 155.32 155">
  <defs>
    <style>
      .cls-1, .cls-11 {
        fill: #fff;
      }

      .cls-10, .cls-2, .cls-3, .cls-4, .cls-5, .cls-6, .cls-7, .cls-8, .cls-9 {
        fill: none;
      }

      .cls-2, .cls-9 {
        stroke: #0500c9;
      }

      .cls-10, .cls-11, .cls-2, .cls-3, .cls-4, .cls-5, .cls-6, .cls-7, .cls-8, .cls-9 {
        stroke-miterlimit: 10;
      }

      .cls-2 {
        stroke-width: 0.15px;
      }

      .cls-10, .cls-11, .cls-3 {
        stroke: #000;
      }

      .cls-3 {
        stroke-width: 3px;
      }

      .cls-4 {
        stroke: #0df400;
      }

      .cls-5 {
        stroke: #009f08;
      }

      .cls-5, .cls-8 {
        stroke-width: 2px;
      }

      .cls-6 {
        stroke: #d84aff;
      }

      .cls-7 {
        stroke: #0059d4;
      }

      .cls-8 {
        stroke: #00b6df;
      }

      .cls-10, .cls-11 {
        stroke-width: 0.75px;
      }

      .cls-12 {
        font-size: 11px;
        font-family: TrebuchetMS-Bold, Trebuchet MS;
        font-weight: 700;
      }
    </style>
  </defs>
  <g id="regular-door">
    <rect class="cls-1" x="1.5" y="1.5" width="152" height="152"/>
    <g>
      <rect class="cls-2" x="1.5" y="1.5" width="152" height="152"/>
      <line class="cls-2" x1="1.5" y1="8.11" x2="153.5" y2="8.11"/>
      <line class="cls-2" x1="1.5" y1="14.72" x2="153.5" y2="14.72"/>
      <line class="cls-2" x1="1.5" y1="21.33" x2="153.5" y2="21.33"/>
      <line class="cls-2" x1="1.5" y1="27.93" x2="153.5" y2="27.93"/>
      <line class="cls-2" x1="1.5" y1="34.54" x2="153.5" y2="34.54"/>
      <line class="cls-2" x1="1.5" y1="41.15" x2="153.5" y2="41.15"/>
      <line class="cls-2" x1="1.5" y1="47.76" x2="153.5" y2="47.76"/>
      <line class="cls-2" x1="1.5" y1="54.37" x2="153.5" y2="54.37"/>
      <line class="cls-2" x1="1.5" y1="60.98" x2="153.5" y2="60.98"/>
      <line class="cls-2" x1="1.5" y1="67.59" x2="153.5" y2="67.59"/>
      <line class="cls-2" x1="1.5" y1="74.2" x2="153.5" y2="74.2"/>
      <line class="cls-2" x1="1.5" y1="80.8" x2="153.5" y2="80.8"/>
      <line class="cls-2" x1="1.5" y1="87.41" x2="153.5" y2="87.41"/>
      <line class="cls-2" x1="1.5" y1="94.02" x2="153.5" y2="94.02"/>
      <line class="cls-2" x1="1.5" y1="100.63" x2="153.5" y2="100.63"/>
      <line class="cls-2" x1="1.5" y1="107.24" x2="153.5" y2="107.24"/>
      <line class="cls-2" x1="1.5" y1="113.85" x2="153.5" y2="113.85"/>
      <line class="cls-2" x1="1.5" y1="120.46" x2="153.5" y2="120.46"/>
      <line class="cls-2" x1="1.5" y1="127.07" x2="153.5" y2="127.07"/>
      <line class="cls-2" x1="1.5" y1="133.67" x2="153.5" y2="133.67"/>
      <line class="cls-2" x1="1.5" y1="140.28" x2="153.5" y2="140.28"/>
      <line class="cls-2" x1="1.5" y1="146.89" x2="153.5" y2="146.89"/>
      <line class="cls-2" x1="146.26" y1="153.5" x2="146.26" y2="1.5"/>
      <line class="cls-2" x1="139.02" y1="153.5" x2="139.02" y2="1.5"/>
      <line class="cls-2" x1="131.79" y1="153.5" x2="131.79" y2="1.5"/>
      <line class="cls-2" x1="124.55" y1="153.5" x2="124.55" y2="1.5"/>
      <line class="cls-2" x1="117.31" y1="153.5" x2="117.31" y2="1.5"/>
      <line class="cls-2" x1="110.07" y1="153.5" x2="110.07" y2="1.5"/>
      <line class="cls-2" x1="102.83" y1="153.5" x2="102.83" y2="1.5"/>
      <line class="cls-2" x1="95.6" y1="153.5" x2="95.6" y2="1.5"/>
      <line class="cls-2" x1="88.36" y1="153.5" x2="88.36" y2="1.5"/>
      <line class="cls-2" x1="81.12" y1="153.5" x2="81.12" y2="1.5"/>
      <line class="cls-2" x1="73.88" y1="153.5" x2="73.88" y2="1.5"/>
      <line class="cls-2" x1="66.64" y1="153.5" x2="66.64" y2="1.5"/>
      <line class="cls-2" x1="59.4" y1="153.5" x2="59.4" y2="1.5"/>
      <line class="cls-2" x1="52.17" y1="153.5" x2="52.17" y2="1.5"/>
      <line class="cls-2" x1="44.93" y1="153.5" x2="44.93" y2="1.5"/>
      <line class="cls-2" x1="37.69" y1="153.5" x2="37.69" y2="1.5"/>
      <line class="cls-2" x1="30.45" y1="153.5" x2="30.45" y2="1.5"/>
      <line class="cls-2" x1="23.21" y1="153.5" x2="23.21" y2="1.5"/>
      <line class="cls-2" x1="15.98" y1="153.5" x2="15.98" y2="1.5"/>
      <line class="cls-2" x1="8.74" y1="153.5" x2="8.74" y2="1.5"/>
    </g>
    <g id="walls">
      <line class="cls-3" x1="122.61" y1="113.85" x2="44.76" y2="113.85"/>
      <line class="cls-3" x1="66.67" y1="113.85" x2="66.62" y2="153.5"/>
      <line class="cls-3" x1="147.33" y1="113.85" x2="153.5" y2="113.85"/>
      <polyline class="cls-3" points="53.19 1.5 1.5 1.5 1.5 153.5 8.74 153.5"/>
      <polyline class="cls-3" points="100.19 1.5 153.5 1.5 153.82 153.5 33.26 153.5"/>
    </g>
    <g id="doors">
      <g id="large">
        <path class="cls-4" d="M9.7,346.71c0-12.56,10.55-22.71,23-22.71" transform="translate(-0.5 -194.52)"/>
        <line class="cls-5" x1="32.22" y1="128.92" x2="32.22" y2="151.92"/>
      </g>
      <g id="large-2" data-name="large">
        <path class="cls-4" d="M123.75,309.59a23,23,0,0,0,23,22.71" transform="translate(-0.5 -194.52)"/>
        <line class="cls-5" x1="146.26" y1="138.33" x2="146.26" y2="115.33"/>
      </g>
    </g>
    <g id="plumbing">
      <g id="shower">
        <ellipse class="cls-6" cx="78.19" cy="143.54" rx="1.5" ry="1.41"/>
        <rect class="cls-6" x="62.33" y="317.19" width="35.7" height="22" transform="translate(-248.51 213.86) rotate(-90)"/>
        <polygon class="cls-6" points="90.69 148.71 84.8 148.71 72.55 148.71 70.69 147.02 70.69 119.81 72.55 117.7 90.69 117.7 90.69 148.71"/>
        <polyline class="cls-6" points="84.31 118.1 86.69 120.33 86.69 147.19 84.76 148.86"/>
      </g>
      <g id="toilet">
        <polygon class="cls-6" points="105.7 144.74 104.88 144.74 103.31 146.27 103.31 150.33 104.14 151.74 115.49 151.74 116.31 150.33 116.31 146.27 114.62 144.74 113.88 144.74 109.81 144.74 105.7 144.74"/>
        <polygon class="cls-6" points="106.94 133.38 105.48 134.91 104.8 136.41 104.83 140.19 105.63 144.74 114.01 144.74 114.8 140.24 114.83 136.46 114.14 134.96 112.69 133.43 111.09 132.57 108.53 132.52 106.94 133.38"/>
      </g>
    </g>
    <g id="surfaces">
      <g id="counter">
        <rect id="counter-2" data-name="counter" class="cls-7" x="132.94" y="326.91" width="11.24" height="27.03" transform="translate(478.48 7.34) rotate(90)"/>
      </g>
    </g>
    <g id="windows">
      <line class="cls-8" x1="53.19" y1="1.5" x2="100.19" y2="1.5"/>
    </g>
  </g>
  <g id="labels">
    <g id="_1_sq._ft." data-name="1 sq. ft.">
      <rect class="cls-9" x="37.7" y="34.08" width="7.29" height="7.29"/>
      <line class="cls-10" x1="44.99" y1="41.38" x2="61.12" y2="52.87"/>
      <rect class="cls-11" x="60.53" y="47.12" width="45.63" height="13.81"/>
      <text class="cls-12" transform="translate(63.21 57.2)">1 sq. ft.</text>
    </g>
  </g>
</svg>