<svg xmlns="http://www.w3.org/2000/svg" viewBox="0 0 302 166.5">
  <defs>
    <style>
      .cls-1, .cls-14 {
        fill: #fff;
      }

      .cls-10, .cls-11, .cls-12, .cls-13, .cls-2, .cls-3, .cls-4, .cls-5, .cls-6, .cls-7, .cls-8, .cls-9 {
        fill: none;
      }

      .cls-12, .cls-2 {
        stroke: #0500c9;
      }

      .cls-10, .cls-12, .cls-13, .cls-14, .cls-2, .cls-3, .cls-4, .cls-5, .cls-6, .cls-7, .cls-8, .cls-9 {
        stroke-miterlimit: 10;
      }

      .cls-2 {
        stroke-width: 0.15px;
      }

      .cls-3, .cls-4 {
        stroke: #d84aff;
      }

      .cls-4, .cls-7, .cls-8 {
        stroke-width: 2px;
      }

      .cls-5 {
        stroke: #0059d4;
      }

      .cls-6 {
        stroke: #0df400;
      }

      .cls-7 {
        stroke: #009f08;
      }

      .cls-8 {
        stroke: #00b6df;
      }

      .cls-10, .cls-13, .cls-14, .cls-9 {
        stroke: #000;
      }

      .cls-9 {
        stroke-width: 3px;
      }

      .cls-13, .cls-14 {
        stroke-width: 0.75px;
      }

      .cls-15 {
        font-size: 11px;
        font-family: TrebuchetMS-Bold, Trebuchet MS;
        font-weight: 700;
      }
    </style>
  </defs>
  <g id="suite">
    <rect class="cls-1" x="2.17" y="2.06" width="299" height="163"/>
    <g>
      <rect class="cls-2" x="1.5" y="1.5" width="299" height="163"/>
      <line class="cls-2" x1="1.5" y1="157.41" x2="300.5" y2="157.41"/>
      <line class="cls-2" x1="1.5" y1="150.33" x2="300.5" y2="150.33"/>
      <line class="cls-2" x1="1.5" y1="143.24" x2="300.5" y2="143.24"/>
      <line class="cls-2" x1="1.5" y1="136.15" x2="300.5" y2="136.15"/>
      <line class="cls-2" x1="1.5" y1="129.07" x2="300.5" y2="129.07"/>
      <line class="cls-2" x1="1.5" y1="121.98" x2="300.5" y2="121.98"/>
      <line class="cls-2" x1="1.5" y1="114.89" x2="300.5" y2="114.89"/>
      <line class="cls-2" x1="1.5" y1="107.8" x2="300.5" y2="107.8"/>
      <line class="cls-2" x1="1.5" y1="100.72" x2="300.5" y2="100.72"/>
      <line class="cls-2" x1="1.5" y1="93.63" x2="300.5" y2="93.63"/>
      <line class="cls-2" x1="1.5" y1="86.54" x2="300.5" y2="86.54"/>
      <line class="cls-2" x1="1.5" y1="79.46" x2="300.5" y2="79.46"/>
      <line class="cls-2" x1="1.5" y1="72.37" x2="300.5" y2="72.37"/>
      <line class="cls-2" x1="1.5" y1="65.28" x2="300.5" y2="65.28"/>
      <line class="cls-2" x1="1.5" y1="58.2" x2="300.5" y2="58.2"/>
      <line class="cls-2" x1="1.5" y1="51.11" x2="300.5" y2="51.11"/>
      <line class="cls-2" x1="1.5" y1="44.02" x2="300.5" y2="44.02"/>
      <line class="cls-2" x1="1.5" y1="36.93" x2="300.5" y2="36.93"/>
      <line class="cls-2" x1="1.5" y1="29.85" x2="300.5" y2="29.85"/>
      <line class="cls-2" x1="1.5" y1="22.76" x2="300.5" y2="22.76"/>
      <line class="cls-2" x1="1.5" y1="15.67" x2="300.5" y2="15.67"/>
      <line class="cls-2" x1="1.5" y1="8.59" x2="300.5" y2="8.59"/>
      <line class="cls-2" x1="293.21" y1="1.5" x2="293.21" y2="164.5"/>
      <line class="cls-2" x1="285.91" y1="1.5" x2="285.91" y2="164.5"/>
      <line class="cls-2" x1="278.62" y1="1.5" x2="278.62" y2="164.5"/>
      <line class="cls-2" x1="271.33" y1="1.5" x2="271.33" y2="164.5"/>
      <line class="cls-2" x1="264.04" y1="1.5" x2="264.04" y2="164.5"/>
      <line class="cls-2" x1="256.74" y1="1.5" x2="256.74" y2="164.5"/>
      <line class="cls-2" x1="249.45" y1="1.5" x2="249.45" y2="164.5"/>
      <line class="cls-2" x1="242.16" y1="1.5" x2="242.16" y2="164.5"/>
      <line class="cls-2" x1="234.87" y1="1.5" x2="234.87" y2="164.5"/>
      <line class="cls-2" x1="227.57" y1="1.5" x2="227.57" y2="164.5"/>
      <line class="cls-2" x1="220.28" y1="1.5" x2="220.28" y2="164.5"/>
      <line class="cls-2" x1="212.99" y1="1.5" x2="212.99" y2="164.5"/>
      <line class="cls-2" x1="205.7" y1="1.5" x2="205.7" y2="164.5"/>
      <line class="cls-2" x1="198.4" y1="1.5" x2="198.4" y2="164.5"/>
      <line class="cls-2" x1="191.11" y1="1.5" x2="191.11" y2="164.5"/>
      <line class="cls-2" x1="183.82" y1="1.5" x2="183.82" y2="164.5"/>
      <line class="cls-2" x1="176.52" y1="1.5" x2="176.52" y2="164.5"/>
      <line class="cls-2" x1="169.23" y1="1.5" x2="169.23" y2="164.5"/>
      <line class="cls-2" x1="161.94" y1="1.5" x2="161.94" y2="164.5"/>
      <line class="cls-2" x1="154.65" y1="1.5" x2="154.65" y2="164.5"/>
      <line class="cls-2" x1="147.35" y1="1.5" x2="147.35" y2="164.5"/>
      <line class="cls-2" x1="140.06" y1="1.5" x2="140.06" y2="164.5"/>
      <line class="cls-2" x1="132.77" y1="1.5" x2="132.77" y2="164.5"/>
      <line class="cls-2" x1="125.48" y1="1.5" x2="125.48" y2="164.5"/>
      <line class="cls-2" x1="118.18" y1="1.5" x2="118.18" y2="164.5"/>
      <line class="cls-2" x1="110.89" y1="1.5" x2="110.89" y2="164.5"/>
      <line class="cls-2" x1="103.6" y1="1.5" x2="103.6" y2="164.5"/>
      <line class="cls-2" x1="96.3" y1="1.5" x2="96.3" y2="164.5"/>
      <line class="cls-2" x1="89.01" y1="1.5" x2="89.01" y2="164.5"/>
      <line class="cls-2" x1="81.72" y1="1.5" x2="81.72" y2="164.5"/>
      <line class="cls-2" x1="74.43" y1="1.5" x2="74.43" y2="164.5"/>
      <line class="cls-2" x1="67.13" y1="1.5" x2="67.13" y2="164.5"/>
      <line class="cls-2" x1="59.84" y1="1.5" x2="59.84" y2="164.5"/>
      <line class="cls-2" x1="52.55" y1="1.5" x2="52.55" y2="164.5"/>
      <line class="cls-2" x1="45.26" y1="1.5" x2="45.26" y2="164.5"/>
      <line class="cls-2" x1="37.96" y1="1.5" x2="37.96" y2="164.5"/>
      <line class="cls-2" x1="30.67" y1="1.5" x2="30.67" y2="164.5"/>
      <line class="cls-2" x1="23.38" y1="1.5" x2="23.38" y2="164.5"/>
      <line class="cls-2" x1="16.09" y1="1.5" x2="16.09" y2="164.5"/>
      <line class="cls-2" x1="8.79" y1="1.5" x2="8.79" y2="164.5"/>
    </g>
    <g id="plumbing">
      <g id="bath">
        <ellipse class="cls-3" cx="269.03" cy="33" rx="9" ry="17.5"/>
        <line class="cls-4" x1="257.53" y1="33" x2="259.53" y2="33"/>
        <circle class="cls-3" cx="269.03" cy="32.59" r="1.46"/>
      </g>
      <g id="bath-2" data-name="bath">
        <ellipse class="cls-3" cx="243.5" cy="33" rx="9" ry="17.5"/>
        <line class="cls-4" x1="255" y1="33" x2="253" y2="33"/>
        <circle class="cls-3" cx="243.5" cy="32.59" r="1.46"/>
      </g>
      <g id="shower">
        <ellipse class="cls-3" cx="222.78" cy="153" rx="1.46" ry="1.5"/>
        <rect class="cls-3" x="214.5" y="140.5" width="37" height="22"/>
        <polygon class="cls-3" points="217.42 140.5 217.42 146.38 217.42 158.63 219.17 160.5 247.37 160.5 249.55 158.63 249.55 140.5 217.42 140.5"/>
        <polyline class="cls-3" points="249.14 146.87 246.83 144.5 218.99 144.5 217.26 146.43"/>
      </g>
      <g id="toilet">
        <polygon class="cls-3" points="273.28 155.61 272.45 155.61 270.89 157.14 270.89 161.2 271.71 162.61 283.07 162.61 283.89 161.2 283.89 157.14 282.2 155.61 281.46 155.61 277.39 155.61 273.28 155.61"/>
        <polygon class="cls-3" points="274.51 144.25 273.06 145.78 272.38 147.28 272.41 151.06 273.2 155.61 281.59 155.61 282.38 151.11 282.41 147.33 281.72 145.83 280.27 144.3 278.67 143.44 276.11 143.39 274.51 144.25"/>
      </g>
    </g>
    <g id="surfaces">
      <rect id="counter" class="cls-5" x="281.5" y="57.5" width="17" height="48.43"/>
    </g>
    <g id="doors">
      <g id="large">
        <path class="cls-6" d="M79.56,163.28A22.63,22.63,0,0,0,57,140.56"/>
        <line class="cls-7" x1="57" y1="140" x2="57" y2="163"/>
      </g>
      <g id="large-2" data-name="large">
        <path class="cls-6" d="M47,82.39c-13,0-23.56-10.11-23.56-22.61"/>
        <line class="cls-7" x1="23" y1="60" x2="47" y2="60"/>
      </g>
      <g id="large-3" data-name="large">
        <path class="cls-6" d="M213.94,130.39c13,0,21.23-8.77,21.23-21.06"/>
        <line class="cls-7" x1="236" y1="109" x2="214" y2="109"/>
      </g>
      <g id="small">
        <path class="cls-6" d="M267.28,125c0-8.06,7.68-15.39,16.72-15.39"/>
        <line class="cls-7" x1="284" y1="109" x2="284" y2="125"/>
      </g>
    </g>
    <g id="windows">
      <line class="cls-8" x1="78" y1="2" x2="124" y2="2"/>
      <line class="cls-8" x1="130" y1="2" x2="177" y2="2"/>
      <line class="cls-8" x1="234" y1="2" x2="282" y2="2"/>
      <line class="cls-8" x1="300" y1="69" x2="300" y2="94"/>
      <line class="cls-8" x1="300" y1="138" x2="300" y2="153"/>
    </g>
    <g id="walls">
      <polyline class="cls-9" points="56 164.5 1.5 164.5 1.5 1.5 78 1.5"/>
      <line class="cls-9" x1="124" y1="1.5" x2="130" y2="1.5"/>
      <polyline class="cls-9" points="282 1.5 300.5 1.5 300.5 69"/>
      <polyline class="cls-9" points="300.5 94 300.5 126.5 285 126.5"/>
      <polyline class="cls-9" points="300.5 152 300.5 164.5 80 164.69"/>
      <line class="cls-9" x1="212.5" y1="165" x2="212.5" y2="131"/>
      <polyline class="cls-9" points="212.5 108 212.5 1.5 234 1.5"/>
      <polyline class="cls-9" points="267 126.5 253.5 126.5 253.56 165"/>
      <path class="cls-10" d="M280,113.19"/>
      <path class="cls-10" d="M263.56,132"/>
      <line class="cls-9" x1="177" y1="1.5" x2="212" y2="1.5"/>
      <line class="cls-9" x1="300.5" y1="126" x2="300.5" y2="138"/>
      <path class="cls-11" d="M300.22,152.78"/>
      <path class="cls-11" d="M300.44,138.44"/>
      <line class="cls-9" x1="48.5" y1="165" x2="48.5" y2="83"/>
      <line class="cls-9" x1="48.5" y1="2" x2="48.5" y2="59"/>
      <path class="cls-9" d="M2,196"/>
    </g>
  </g>
  <g id="labels">
    <g id="_1_sq._ft." data-name="1 sq. ft.">
      <rect class="cls-12" x="74.43" y="50.84" width="7.29" height="7.29"/>
      <line class="cls-13" x1="81.72" y1="58.13" x2="97.85" y2="69.62"/>
      <rect class="cls-14" x="97.26" y="63.88" width="45.63" height="13.81"/>
      <text class="cls-15" transform="translate(99.94 73.95)">1 sq. ft.</text>
    </g>
  </g>
</svg>