<svg id="svg-rooms" xmlns="http://www.w3.org/2000/svg" viewBox="0 0 256 256"><defs><style>.cls-1{fill:none;}</style></defs><polygon id="svg-room-5" class="cls-1" points="80.85 101.07 81.82 121.68 103.92 129.49 103.18 105.89 80.85 101.07"/><polygon id="svg-room-6" class="cls-1" points="176.74 130.38 177.81 105.81 131.67 112.04 103.18 105.89 103.92 129.49 133.33 139.89 176.74 130.38"/><polygon id="svg-room-1" class="cls-1" points="81.82 121.68 82.63 138.93 83.3 139.44 83.37 142.19 104.72 153.04 103.99 129.52 81.82 121.68"/><polygon id="svg-room-2" class="cls-1" points="175.67 154.7 176.74 130.38 133.33 139.89 103.99 129.52 104.72 153.04 133.07 167.44 175.67 154.7"/><polygon id="svg-room-7" class="cls-1" points="89.89 109.52 55.52 104.93 57.56 128.05 91.44 136.19 153.23 118.78 153.37 98.56 89.89 109.52"/><polygon id="svg-room-3" class="cls-1" points="153.23 118.78 128 125.89 128 145.03 153.11 135.83 153.23 118.78"/><polygon id="svg-room-4" class="cls-1" points="91.44 136.19 57.56 128.05 59.52 150.11 93.56 161.33 93.5 157.67 128 145.03 128 125.89 91.44 136.19"/><rect class="cls-1" width="256" height="256"/></svg>